<?xml version="1.0" encoding="UTF-8" standalone="no"?><!DOCTYPE svg PUBLIC "-//W3C//DTD SVG 1.1//EN" "http://www.w3.org/Graphics/SVG/1.1/DTD/svg11.dtd"><!-- Generated by graphviz version 2.40.1 (20161225.0304)
 --><!-- Title: G Pages: 1 --><svg xmlns="http://www.w3.org/2000/svg" xmlns:xlink="http://www.w3.org/1999/xlink" width="1252pt" height="298pt" viewBox="0.00 0.00 1251.76 298.00">
<g id="graph0" class="graph" transform="scale(1 1) rotate(0) translate(4 294)">
<title>G</title>
<polygon fill="#ffffff" stroke="transparent" points="-4,4 -4,-294 1247.7586,-294 1247.7586,4 -4,4"/>
<!-- aws_eip.nat_eip -->
<g id="node1" class="node">
<title>aws_eip.nat_eip</title>
<polygon fill="none" stroke="#000000" points="331.772,-290 225.6076,-290 225.6076,-254 331.772,-254 331.772,-290"/>
<text text-anchor="middle" x="278.6898" y="-267.8" font-family="sans-serif" font-size="14.00" fill="#000000">aws_eip.nat_eip</text>
</g>
<!-- aws_instance.private_instance -->
<g id="node2" class="node">
<title>aws_instance.private_instance</title>
<polygon fill="none" stroke="#000000" points="869.7883,-122 684.0363,-122 684.0363,-86 869.7883,-86 869.7883,-122"/>
<text text-anchor="middle" x="776.9123" y="-99.8" font-family="sans-serif" font-size="14.00" fill="#000000">aws_instance.private_instance</text>
</g>
<!-- aws_security_group.private_sg -->
<g id="node10" class="node">
<title>aws_security_group.private_sg</title>
<polygon fill="none" stroke="#000000" points="598.3679,-144 408.2517,-144 408.2517,-108 598.3679,-108 598.3679,-144"/>
<text text-anchor="middle" x="503.3098" y="-121.8" font-family="sans-serif" font-size="14.00" fill="#000000">aws_security_group.private_sg</text>
</g>
<!-- aws_instance.private_instance&#45;&gt;aws_security_group.private_sg -->
<g id="edge1" class="edge">
<title>aws_instance.private_instance-&gt;aws_security_group.private_sg</title>
<path fill="none" stroke="#000000" d="M683.9012,-111.4789C659.6651,-113.4277 633.379,-115.5413 608.5586,-117.5371"/>
<polygon fill="#000000" stroke="#000000" points="608.0795,-114.0642 598.3922,-118.3546 608.6406,-121.0417 608.0795,-114.0642"/>
</g>
<!-- aws_subnet.private_subnet -->
<g id="node12" class="node">
<title>aws_subnet.private_subnet</title>
<polygon fill="none" stroke="#000000" points="587.0464,-36 419.5732,-36 419.5732,0 587.0464,0 587.0464,-36"/>
<text text-anchor="middle" x="503.3098" y="-13.8" font-family="sans-serif" font-size="14.00" fill="#000000">aws_subnet.private_subnet</text>
</g>
<!-- aws_instance.private_instance&#45;&gt;aws_subnet.private_subnet -->
<g id="edge2" class="edge">
<title>aws_instance.private_instance-&gt;aws_subnet.private_subnet</title>
<path fill="none" stroke="#000000" d="M724.4351,-85.9727C689.0136,-73.9685 641.1409,-58.0619 598.5886,-45 592.0733,-43.0001 585.2912,-40.9721 578.4812,-38.9727"/>
<polygon fill="#000000" stroke="#000000" points="579.0912,-35.5051 568.5115,-36.0705 577.1347,-42.2261 579.0912,-35.5051"/>
</g>
<!-- aws_instance.public_instance -->
<g id="node3" class="node">
<title>aws_instance.public_instance</title>
<polygon fill="none" stroke="#000000" points="594.3106,-90 412.309,-90 412.309,-54 594.3106,-54 594.3106,-90"/>
<text text-anchor="middle" x="503.3098" y="-67.8" font-family="sans-serif" font-size="14.00" fill="#000000">aws_instance.public_instance</text>
</g>
<!-- aws_security_group.public_sg -->
<g id="node11" class="node">
<title>aws_security_group.public_sg</title>
<polygon fill="none" stroke="#000000" points="371.8725,-90 185.5071,-90 185.5071,-54 371.8725,-54 371.8725,-90"/>
<text text-anchor="middle" x="278.6898" y="-67.8" font-family="sans-serif" font-size="14.00" fill="#000000">aws_security_group.public_sg</text>
</g>
<!-- aws_instance.public_instance&#45;&gt;aws_security_group.public_sg -->
<g id="edge3" class="edge">
<title>aws_instance.public_instance-&gt;aws_security_group.public_sg</title>
<path fill="none" stroke="#000000" d="M412.2721,-72C402.3305,-72 392.1581,-72 382.082,-72"/>
<polygon fill="#000000" stroke="#000000" points="382.0502,-68.5001 372.0502,-72 382.0501,-75.5001 382.0502,-68.5001"/>
</g>
<!-- aws_subnet.public_subnet -->
<g id="node13" class="node">
<title>aws_subnet.public_subnet</title>
<polygon fill="none" stroke="#000000" points="360.5514,-144 196.8282,-144 196.8282,-108 360.5514,-108 360.5514,-144"/>
<text text-anchor="middle" x="278.6898" y="-121.8" font-family="sans-serif" font-size="14.00" fill="#000000">aws_subnet.public_subnet</text>
</g>
<!-- aws_instance.public_instance&#45;&gt;aws_subnet.public_subnet -->
<g id="edge4" class="edge">
<title>aws_instance.public_instance-&gt;aws_subnet.public_subnet</title>
<path fill="none" stroke="#000000" d="M428.2023,-90.0563C407.5035,-95.0324 384.9042,-100.4654 363.689,-105.5657"/>
<polygon fill="#000000" stroke="#000000" points="362.6314,-102.2201 353.7265,-107.9607 364.2676,-109.0262 362.6314,-102.2201"/>
</g>
<!-- aws_internet_gateway.igw -->
<g id="node4" class="node">
<title>aws_internet_gateway.igw</title>
<polygon fill="none" stroke="#000000" points="361.3557,-217 196.0239,-217 196.0239,-181 361.3557,-181 361.3557,-217"/>
<text text-anchor="middle" x="278.6898" y="-194.8" font-family="sans-serif" font-size="14.00" fill="#000000">aws_internet_gateway.igw</text>
</g>
<!-- aws_vpc.main_network -->
<g id="node14" class="node">
<title>aws_vpc.main_network</title>
<polygon fill="none" stroke="#000000" points="149.5233,-117 -.1747,-117 -.1747,-81 149.5233,-81 149.5233,-117"/>
<text text-anchor="middle" x="74.6743" y="-94.8" font-family="sans-serif" font-size="14.00" fill="#000000">aws_vpc.main_network</text>
</g>
<!-- aws_internet_gateway.igw&#45;&gt;aws_vpc.main_network -->
<g id="edge5" class="edge">
<title>aws_internet_gateway.igw-&gt;aws_vpc.main_network</title>
<path fill="none" stroke="#000000" d="M241.7441,-180.8908C207.7642,-164.2352 157.2531,-139.4767 120.6711,-121.5457"/>
<polygon fill="#000000" stroke="#000000" points="122.2091,-118.4018 111.6893,-117.1432 119.1281,-124.6873 122.2091,-118.4018"/>
</g>
<!-- aws_nat_gateway.nat -->
<g id="node5" class="node">
<title>aws_nat_gateway.nat</title>
<polygon fill="none" stroke="#000000" points="571.4271,-290 435.1925,-290 435.1925,-254 571.4271,-254 571.4271,-290"/>
<text text-anchor="middle" x="503.3098" y="-267.8" font-family="sans-serif" font-size="14.00" fill="#000000">aws_nat_gateway.nat</text>
</g>
<!-- aws_nat_gateway.nat&#45;&gt;aws_eip.nat_eip -->
<g id="edge6" class="edge">
<title>aws_nat_gateway.nat-&gt;aws_eip.nat_eip</title>
<path fill="none" stroke="#000000" d="M435.0015,-272C405.4442,-272 371.0572,-272 342.0737,-272"/>
<polygon fill="#000000" stroke="#000000" points="342.064,-268.5001 332.064,-272 342.064,-275.5001 342.064,-268.5001"/>
</g>
<!-- aws_nat_gateway.nat&#45;&gt;aws_subnet.public_subnet -->
<g id="edge7" class="edge">
<title>aws_nat_gateway.nat-&gt;aws_subnet.public_subnet</title>
<path fill="none" stroke="#000000" d="M435.2191,-260.3627C425.4031,-256.5912 415.958,-251.6012 408.031,-245 380.2324,-221.8509 397.6141,-197.5763 372.031,-172 362.7662,-162.7376 351.2605,-155.0317 339.527,-148.7436"/>
<polygon fill="#000000" stroke="#000000" points="341.0476,-145.5906 330.5432,-144.2092 337.8934,-151.8397 341.0476,-145.5906"/>
</g>
<!-- aws_route_table.private_rt -->
<g id="node6" class="node">
<title>aws_route_table.private_rt</title>
<polygon fill="none" stroke="#000000" points="859.5768,-278 694.2478,-278 694.2478,-242 859.5768,-242 859.5768,-278"/>
<text text-anchor="middle" x="776.9123" y="-255.8" font-family="sans-serif" font-size="14.00" fill="#000000">aws_route_table.private_rt</text>
</g>
<!-- aws_route_table.private_rt&#45;&gt;aws_nat_gateway.nat -->
<g id="edge8" class="edge">
<title>aws_route_table.private_rt-&gt;aws_nat_gateway.nat</title>
<path fill="none" stroke="#000000" d="M694.08,-263.633C658.4354,-265.1963 616.9692,-267.015 581.8187,-268.5567"/>
<polygon fill="#000000" stroke="#000000" points="581.4426,-265.0697 571.6056,-269.0046 581.7494,-272.063 581.4426,-265.0697"/>
</g>
<!-- aws_route_table.public_rt -->
<g id="node7" class="node">
<title>aws_route_table.public_rt</title>
<polygon fill="none" stroke="#000000" points="584.0989,-236 422.5207,-236 422.5207,-200 584.0989,-200 584.0989,-236"/>
<text text-anchor="middle" x="503.3098" y="-213.8" font-family="sans-serif" font-size="14.00" fill="#000000">aws_route_table.public_rt</text>
</g>
<!-- aws_route_table.public_rt&#45;&gt;aws_internet_gateway.igw -->
<g id="edge9" class="edge">
<title>aws_route_table.public_rt-&gt;aws_internet_gateway.igw</title>
<path fill="none" stroke="#000000" d="M422.2168,-211.1406C405.8786,-209.7586 388.583,-208.2956 371.8697,-206.8818"/>
<polygon fill="#000000" stroke="#000000" points="371.8118,-203.3645 361.5523,-206.0091 371.2217,-210.3396 371.8118,-203.3645"/>
</g>
<!-- aws_route_table_association.private_association -->
<g id="node8" class="node">
<title>aws_route_table_association.private_association</title>
<polygon fill="none" stroke="#000000" points="1243.5203,-158 955.4743,-158 955.4743,-122 1243.5203,-122 1243.5203,-158"/>
<text text-anchor="middle" x="1099.4973" y="-135.8" font-family="sans-serif" font-size="14.00" fill="#000000">aws_route_table_association.private_association</text>
</g>
<!-- aws_route_table_association.private_association&#45;&gt;aws_route_table.private_rt -->
<g id="edge10" class="edge">
<title>aws_route_table_association.private_association-&gt;aws_route_table.private_rt</title>
<path fill="none" stroke="#000000" d="M1054.0908,-158.1039C1017.7334,-172.4857 965.3675,-192.9449 919.236,-210 893.2131,-219.6209 864.3554,-229.8414 839.4654,-238.5178"/>
<polygon fill="#000000" stroke="#000000" points="838.0746,-235.2958 829.7791,-241.8864 840.3739,-241.9074 838.0746,-235.2958"/>
</g>
<!-- aws_route_table_association.private_association&#45;&gt;aws_subnet.private_subnet -->
<g id="edge11" class="edge">
<title>aws_route_table_association.private_association-&gt;aws_subnet.private_subnet</title>
<path fill="none" stroke="#000000" d="M1055.4083,-121.8696C1019.3533,-107.7093 966.7497,-88.5553 919.236,-77 810.2785,-50.5017 682.1717,-34.5509 597.2185,-26.0363"/>
<polygon fill="#000000" stroke="#000000" points="597.3721,-22.5345 587.0764,-25.0346 596.684,-29.5006 597.3721,-22.5345"/>
</g>
<!-- aws_route_table_association.public_association -->
<g id="node9" class="node">
<title>aws_route_table_association.public_association</title>
<polygon fill="none" stroke="#000000" points="919.0599,-201 634.7647,-201 634.7647,-165 919.0599,-165 919.0599,-201"/>
<text text-anchor="middle" x="776.9123" y="-178.8" font-family="sans-serif" font-size="14.00" fill="#000000">aws_route_table_association.public_association</text>
</g>
<!-- aws_route_table_association.public_association&#45;&gt;aws_route_table.public_rt -->
<g id="edge12" class="edge">
<title>aws_route_table_association.public_association-&gt;aws_route_table.public_rt</title>
<path fill="none" stroke="#000000" d="M636.1037,-201.0126C621.9136,-202.8279 607.7809,-204.6358 594.3173,-206.3581"/>
<polygon fill="#000000" stroke="#000000" points="593.6371,-202.9165 584.1621,-207.6572 594.5254,-209.8599 593.6371,-202.9165"/>
</g>
<!-- aws_route_table_association.public_association&#45;&gt;aws_subnet.public_subnet -->
<g id="edge13" class="edge">
<title>aws_route_table_association.public_association-&gt;aws_subnet.public_subnet</title>
<path fill="none" stroke="#000000" d="M634.5609,-175.5778C565.8801,-170.9388 482.435,-163.7487 408.031,-153 394.7859,-151.0866 380.8604,-148.643 367.2526,-146.0103"/>
<polygon fill="#000000" stroke="#000000" points="367.9034,-142.5713 357.4144,-144.0648 366.5454,-149.4383 367.9034,-142.5713"/>
</g>
<!-- aws_security_group.private_sg&#45;&gt;aws_subnet.public_subnet -->
<g id="edge14" class="edge">
<title>aws_security_group.private_sg-&gt;aws_subnet.public_subnet</title>
<path fill="none" stroke="#000000" d="M408.0507,-126C395.72,-126 383.1085,-126 370.8296,-126"/>
<polygon fill="#000000" stroke="#000000" points="370.607,-122.5001 360.607,-126 370.607,-129.5001 370.607,-122.5001"/>
</g>
<!-- aws_security_group.public_sg&#45;&gt;aws_vpc.main_network -->
<g id="edge15" class="edge">
<title>aws_security_group.public_sg-&gt;aws_vpc.main_network</title>
<path fill="none" stroke="#000000" d="M185.3395,-84.3543C176.8359,-85.4796 168.2515,-86.6157 159.825,-87.7309"/>
<polygon fill="#000000" stroke="#000000" points="159.0951,-84.2969 149.6407,-89.0787 160.0135,-91.2364 159.0951,-84.2969"/>
</g>
<!-- aws_subnet.private_subnet&#45;&gt;aws_vpc.main_network -->
<g id="edge16" class="edge">
<title>aws_subnet.private_subnet-&gt;aws_vpc.main_network</title>
<path fill="none" stroke="#000000" d="M419.4888,-16.771C354.5059,-17.8024 262.7831,-23.6257 185.3486,-45 160.0361,-51.987 133.5364,-64.6999 112.8153,-76.0359"/>
<polygon fill="#000000" stroke="#000000" points="111.0383,-73.0194 104.0185,-80.955 114.4548,-79.1291 111.0383,-73.0194"/>
</g>
<!-- aws_subnet.public_subnet&#45;&gt;aws_vpc.main_network -->
<g id="edge17" class="edge">
<title>aws_subnet.public_subnet-&gt;aws_vpc.main_network</title>
<path fill="none" stroke="#000000" d="M196.8844,-115.1736C184.6729,-113.5575 172.0589,-111.8882 159.781,-110.2633"/>
<polygon fill="#000000" stroke="#000000" points="159.9356,-106.7533 149.5628,-108.911 159.0171,-113.6928 159.9356,-106.7533"/>
</g>
</g>
</svg>